<svg width="30" height="26" viewBox="0 0 30 26" fill="none" xmlns="http://www.w3.org/2000/svg">
<path d="M9.6665 10.3333L14.9998 15.6667L20.3332 10.3333M4.33317 1H25.6665C26.3737 1 27.052 1.28095 27.5521 1.78105C28.0522 2.28115 28.3332 2.95942 28.3332 3.66667V11.6667C28.3332 15.2029 26.9284 18.5943 24.4279 21.0948C21.9274 23.5952 18.5361 25 14.9998 25C13.2489 25 11.5151 24.6551 9.89739 23.9851C8.27972 23.315 6.80986 22.3329 5.57175 21.0948C3.07126 18.5943 1.6665 15.2029 1.6665 11.6667V3.66667C1.6665 2.95942 1.94746 2.28115 2.44755 1.78105C2.94765 1.28095 3.62593 1 4.33317 1Z" stroke="white" stroke-width="2" stroke-linecap="round" stroke-linejoin="round"/>
</svg>
